{
    "asset" : {
        "generator" : "Khronos glTF Blender I/O v1.3.48",
        "version" : "2.0"
    },
    "scene" : 0,
    "scenes" : [
        {
            "name" : "Scene",
            "nodes" : [
                0,
                1,
                6
            ]
        }
    ],
    "nodes" : [
        {
            "name" : "Light",
            "rotation" : [
                0.16907575726509094,
                0.7558803558349609,
                -0.27217137813568115,
                0.570947527885437
            ],
            "translation" : [
                4.076245307922363,
                5.903861999511719,
                -1.0054539442062378
            ]
        },
        {
            "name" : "Camera",
            "rotation" : [
                0.483536034822464,
                0.33687159419059753,
                -0.20870360732078552,
                0.7804827094078064
            ],
            "translation" : [
                7.358891487121582,
                4.958309173583984,
                6.925790786743164
            ]
        },
        {
            "name" : "DoubleWindBase",
            "rotation" : [
                8.146034247147327e-08,
                0,
                0,
                1
            ]
        },
        {
            "name" : "SmallBlades",
            "rotation" : [
                8.146034247147327e-08,
                0,
                0,
                1
            ],
            "translation" : [
                0,
                5,
                0.4399999976158142
            ]
        },
        {
            "name" : "BigBlades",
            "rotation" : [
                8.146034247147327e-08,
                0,
                0,
                1
            ],
            "translation" : [
                0,
                5,
                -0.39000001549720764
            ]
        },
        {
            "mesh" : 0,
            "name" : "DoubleWindTurbine",
            "skin" : 0
        },
        {
            "children" : [
                5,
                2,
                3,
                4
            ],
            "name" : "DoubleWindTurbineRig"
        }
    ],
    "animations" : [
        {
            "channels" : [
                {
                    "sampler" : 0,
                    "target" : {
                        "node" : 2,
                        "path" : "translation"
                    }
                },
                {
                    "sampler" : 1,
                    "target" : {
                        "node" : 2,
                        "path" : "rotation"
                    }
                },
                {
                    "sampler" : 2,
                    "target" : {
                        "node" : 2,
                        "path" : "scale"
                    }
                },
                {
                    "sampler" : 3,
                    "target" : {
                        "node" : 3,
                        "path" : "translation"
                    }
                },
                {
                    "sampler" : 4,
                    "target" : {
                        "node" : 3,
                        "path" : "rotation"
                    }
                },
                {
                    "sampler" : 5,
                    "target" : {
                        "node" : 3,
                        "path" : "scale"
                    }
                },
                {
                    "sampler" : 6,
                    "target" : {
                        "node" : 4,
                        "path" : "translation"
                    }
                },
                {
                    "sampler" : 7,
                    "target" : {
                        "node" : 4,
                        "path" : "rotation"
                    }
                },
                {
                    "sampler" : 8,
                    "target" : {
                        "node" : 4,
                        "path" : "scale"
                    }
                },
                {
                    "sampler" : 9,
                    "target" : {
                        "node" : 6,
                        "path" : "translation"
                    }
                },
                {
                    "sampler" : 10,
                    "target" : {
                        "node" : 6,
                        "path" : "rotation"
                    }
                },
                {
                    "sampler" : 11,
                    "target" : {
                        "node" : 6,
                        "path" : "scale"
                    }
                }
            ],
            "name" : "DoubleWindTurbineRig|DoubleWindTurbineRig|DoubleWindTurbineRigA",
            "samplers" : [
                {
                    "input" : 7,
                    "interpolation" : "LINEAR",
                    "output" : 8
                },
                {
                    "input" : 7,
                    "interpolation" : "LINEAR",
                    "output" : 9
                },
                {
                    "input" : 7,
                    "interpolation" : "LINEAR",
                    "output" : 10
                },
                {
                    "input" : 7,
                    "interpolation" : "LINEAR",
                    "output" : 11
                },
                {
                    "input" : 7,
                    "interpolation" : "LINEAR",
                    "output" : 12
                },
                {
                    "input" : 7,
                    "interpolation" : "LINEAR",
                    "output" : 13
                },
                {
                    "input" : 7,
                    "interpolation" : "LINEAR",
                    "output" : 14
                },
                {
                    "input" : 7,
                    "interpolation" : "LINEAR",
                    "output" : 15
                },
                {
                    "input" : 7,
                    "interpolation" : "LINEAR",
                    "output" : 16
                },
                {
                    "input" : 7,
                    "interpolation" : "LINEAR",
                    "output" : 17
                },
                {
                    "input" : 7,
                    "interpolation" : "LINEAR",
                    "output" : 18
                },
                {
                    "input" : 7,
                    "interpolation" : "LINEAR",
                    "output" : 19
                }
            ]
        }
    ],
    "materials" : [
        {
            "doubleSided" : true,
            "emissiveFactor" : [
                0,
                0,
                0
            ],
            "name" : "DoubleWindTurbineMat",
            "pbrMetallicRoughness" : {
                "baseColorTexture" : {
                    "index" : 0,
                    "texCoord" : 0
                },
                "metallicFactor" : 0,
                "roughnessFactor" : 0.5
            }
        }
    ],
    "meshes" : [
        {
            "name" : "Double Wind Turbine",
            "primitives" : [
                {
                    "attributes" : {
                        "POSITION" : 0,
                        "NORMAL" : 1,
                        "TEXCOORD_0" : 2,
                        "JOINTS_0" : 3,
                        "WEIGHTS_0" : 4
                    },
                    "indices" : 5,
                    "material" : 0
                }
            ]
        }
    ],
    "textures" : [
        {
            "source" : 0
        }
    ],
    "images" : [
        {
            "bufferView" : 6,
            "mimeType" : "image/png",
            "name" : "DoubleWindTurbineBaseColor"
        }
    ],
    "skins" : [
        {
            "inverseBindMatrices" : 6,
            "joints" : [
                2,
                3,
                4
            ],
            "name" : "DoubleWindTurbineRig"
        }
    ],
    "accessors" : [
        {
            "bufferView" : 0,
            "componentType" : 5126,
            "count" : 852,
            "max" : [
                1.3137402534484863,
                6.546335697174072,
                0.5349311828613281
            ],
            "min" : [
                -1.3648748397827148,
                -3.095491862836752e-08,
                -0.46855905652046204
            ],
            "type" : "VEC3"
        },
        {
            "bufferView" : 1,
            "componentType" : 5126,
            "count" : 852,
            "type" : "VEC3"
        },
        {
            "bufferView" : 2,
            "componentType" : 5126,
            "count" : 852,
            "type" : "VEC2"
        },
        {
            "bufferView" : 3,
            "componentType" : 5123,
            "count" : 852,
            "type" : "VEC4"
        },
        {
            "bufferView" : 4,
            "componentType" : 5126,
            "count" : 852,
            "type" : "VEC4"
        },
        {
            "bufferView" : 5,
            "componentType" : 5123,
            "count" : 2028,
            "type" : "SCALAR"
        },
        {
            "bufferView" : 7,
            "componentType" : 5126,
            "count" : 3,
            "type" : "MAT4"
        },
        {
            "bufferView" : 8,
            "componentType" : 5126,
            "count" : 91,
            "max" : [
                3.033333333333333
            ],
            "min" : [
                0.03333333333333333
            ],
            "type" : "SCALAR"
        },
        {
            "bufferView" : 9,
            "componentType" : 5126,
            "count" : 91,
            "type" : "VEC3"
        },
        {
            "bufferView" : 10,
            "componentType" : 5126,
            "count" : 91,
            "type" : "VEC4"
        },
        {
            "bufferView" : 11,
            "componentType" : 5126,
            "count" : 91,
            "type" : "VEC3"
        },
        {
            "bufferView" : 12,
            "componentType" : 5126,
            "count" : 91,
            "type" : "VEC3"
        },
        {
            "bufferView" : 13,
            "componentType" : 5126,
            "count" : 91,
            "type" : "VEC4"
        },
        {
            "bufferView" : 14,
            "componentType" : 5126,
            "count" : 91,
            "type" : "VEC3"
        },
        {
            "bufferView" : 15,
            "componentType" : 5126,
            "count" : 91,
            "type" : "VEC3"
        },
        {
            "bufferView" : 16,
            "componentType" : 5126,
            "count" : 91,
            "type" : "VEC4"
        },
        {
            "bufferView" : 17,
            "componentType" : 5126,
            "count" : 91,
            "type" : "VEC3"
        },
        {
            "bufferView" : 18,
            "componentType" : 5126,
            "count" : 91,
            "type" : "VEC3"
        },
        {
            "bufferView" : 19,
            "componentType" : 5126,
            "count" : 91,
            "type" : "VEC4"
        },
        {
            "bufferView" : 20,
            "componentType" : 5126,
            "count" : 91,
            "type" : "VEC3"
        }
    ],
    "bufferViews" : [
        {
            "buffer" : 0,
            "byteLength" : 10224,
            "byteOffset" : 0
        },
        {
            "buffer" : 0,
            "byteLength" : 10224,
            "byteOffset" : 10224
        },
        {
            "buffer" : 0,
            "byteLength" : 6816,
            "byteOffset" : 20448
        },
        {
            "buffer" : 0,
            "byteLength" : 6816,
            "byteOffset" : 27264
        },
        {
            "buffer" : 0,
            "byteLength" : 13632,
            "byteOffset" : 34080
        },
        {
            "buffer" : 0,
            "byteLength" : 4056,
            "byteOffset" : 47712
        },
        {
            "buffer" : 0,
            "byteLength" : 63692,
            "byteOffset" : 51768
        },
        {
            "buffer" : 0,
            "byteLength" : 192,
            "byteOffset" : 115460
        },
        {
            "buffer" : 0,
            "byteLength" : 364,
            "byteOffset" : 115652
        },
        {
            "buffer" : 0,
            "byteLength" : 1092,
            "byteOffset" : 116016
        },
        {
            "buffer" : 0,
            "byteLength" : 1456,
            "byteOffset" : 117108
        },
        {
            "buffer" : 0,
            "byteLength" : 1092,
            "byteOffset" : 118564
        },
        {
            "buffer" : 0,
            "byteLength" : 1092,
            "byteOffset" : 119656
        },
        {
            "buffer" : 0,
            "byteLength" : 1456,
            "byteOffset" : 120748
        },
        {
            "buffer" : 0,
            "byteLength" : 1092,
            "byteOffset" : 122204
        },
        {
            "buffer" : 0,
            "byteLength" : 1092,
            "byteOffset" : 123296
        },
        {
            "buffer" : 0,
            "byteLength" : 1456,
            "byteOffset" : 124388
        },
        {
            "buffer" : 0,
            "byteLength" : 1092,
            "byteOffset" : 125844
        },
        {
            "buffer" : 0,
            "byteLength" : 1092,
            "byteOffset" : 126936
        },
        {
            "buffer" : 0,
            "byteLength" : 1456,
            "byteOffset" : 128028
        },
        {
            "buffer" : 0,
            "byteLength" : 1092,
            "byteOffset" : 129484
        }
    ],
    "buffers" : [
        {
            "byteLength" : 130576,
            "uri" : "data:application/octet-stream;base64,"
        }
    ]
}
